<svg id="Capa_1" enable-background="new 0 0 512.302 512.302" height="512" viewBox="0 0 512.302 512.302" width="512" xmlns="http://www.w3.org/2000/svg"><circle cx="310.18" cy="245.562" fill="#f9f48e" r="34.509"/><circle cx="202.101" cy="245.562" fill="#f9f48e" r="34.509"/><path d="m310.18 211.053c-1.804 0-3.575.139-5.304.405 6.072 6.22 9.813 14.725 9.813 24.104 0 17.255-12.664 31.552-29.205 34.104 6.267 6.42 15.016 10.405 24.696 10.405 19.059 0 34.509-15.45 34.509-34.509s-15.451-34.509-34.509-34.509z" fill="#f6e738"/><path d="m202.101 211.053c-1.804 0-3.575.139-5.304.405 6.072 6.22 9.813 14.725 9.813 24.104 0 17.255-12.664 31.552-29.205 34.104 6.267 6.42 15.016 10.405 24.696 10.405 19.059 0 34.509-15.45 34.509-34.509s-15.45-34.509-34.509-34.509z" fill="#f6e738"/><path d="m455.071 219.052-2.608-2.608c-6.732-6.732-17.646-6.732-24.378 0l-.371.371c-6.732 6.732-6.732 17.646 0 24.378l6.729 6.729c16.8 16.8 16.8 44.039 0 60.84-22.532 22.532-58.621 23.893-82.787 3.123l-37.315-32.073c-2.396.288-4.868.332-7.389.103v.155c0 17.388 4.156 34.512 12.106 49.949l14.205 12.209c35.556 30.561 88.655 28.558 121.807-4.595 32.746-32.746 32.746-85.836.001-118.581z" fill="#aad540"/><path d="m193.222 330.018c7.95-15.437 12.106-32.56 12.106-49.949v-.155c-2.521.228-4.993.185-7.389-.103l-37.316 32.073c-24.165 20.771-60.255 19.409-82.787-3.123-16.8-16.8-16.8-44.039 0-60.84l6.729-6.729c6.732-6.732 6.732-17.646 0-24.378l-.371-.371c-6.732-6.732-17.646-6.732-24.378 0l-2.608 2.608c-32.745 32.745-32.745 85.835 0 118.58 33.152 33.152 86.252 35.155 121.808 4.595z" fill="#aad540"/><path d="m256.14 7.5c-66.836.929-120.872 56.377-120.159 123.216.342 32.071 13.072 61.168 33.628 82.742 4.051 4.252 4.883 10.559 2.106 15.732 5.831-10.799 17.251-18.136 30.385-18.136 19.059 0 34.509 15.45 34.509 34.509 0 17.97-13.736 32.732-31.282 34.359v.148c0 18.237-4.572 36.182-13.297 52.196-10.245 18.804-15.613 39.876-15.613 61.289v38.717c0 4.572-1.816 8.956-5.049 12.189l-30.239 30.239c-6.732 6.732-6.732 17.646 0 24.378l.376.376c6.729 6.729 17.635 6.732 24.364.003l28.701-28.701c10.787-10.787 16.846-25.416 16.846-40.671v-39.627c0-13.53 3.392-26.845 9.866-38.726l17.098-31.38c7.663-14.064 27.856-14.064 35.519 0l17.098 31.38c6.474 11.881 9.866 25.196 9.866 38.726v39.628c0 15.254 6.06 29.883 16.846 40.669l28.693 28.693c6.728 6.728 17.638 6.736 24.367.011l.367-.367c6.737-6.738 6.752-17.655.014-24.392l-30.239-30.239c-3.233-3.233-5.049-7.617-5.049-12.189v-38.717c0-21.413-5.368-42.485-15.613-61.289-8.725-16.014-13.297-33.96-13.297-52.196v-.148c-17.545-1.627-31.282-16.389-31.282-34.359 0-19.059 15.45-34.509 34.509-34.509 13.135 0 24.555 7.338 30.386 18.139-2.778-5.173-1.947-11.482 2.105-15.735 20.556-21.574 33.286-50.671 33.628-82.742.714-66.839-53.322-122.287-120.158-123.216z" fill="#c8ea73"/><path d="m340.912 444.46c-3.233-3.233-5.049-7.617-5.049-12.189v-38.717c0-21.413-5.368-42.485-15.613-61.289-8.725-16.014-13.297-33.96-13.297-52.196v-.148c-12.861-1.193-23.675-9.443-28.533-20.841-2.64.647-5.4.99-8.24.99h-.07c-1.706-.003-3.053 1.389-2.992 3.095.287 7.947 1.215 27.229 13.131 49.1 8.198 15.046 13.272 31.544 14.974 48.508 3.716 9.426 5.64 19.493 5.64 29.684 0 21.741 8.636 42.591 24.009 57.964l6.279 6.278c6.737 6.737 6.723 17.655-.014 24.392-.122.122-.245.245-.367.367-.744.743-1.539 1.404-2.373 1.983l18.006 18.006c6.728 6.728 17.638 6.736 24.367.011l.367-.367c6.737-6.738 6.752-17.655.014-24.392z" fill="#b7e445"/><path d="m287.64 12.118c29.859 22.592 49.087 58.55 48.659 98.597-.342 32.071-13.072 61.168-33.628 82.742-4.052 4.252-4.883 10.562-2.105 15.735.5.926.958 1.877 1.374 2.851 2.641-.647 5.4-.99 8.24-.99 13.135 0 24.555 7.338 30.386 18.139-2.778-5.173-1.947-11.482 2.105-15.735 20.556-21.574 33.286-50.671 33.628-82.742.597-55.937-37.153-103.896-88.659-118.597z" fill="#b7e445"/><path d="m374.918 392.362c-3.09.272-6.034-1.37-7.427-4.141l-17.362-34.536c-5.926-3.105-11.589-6.923-16.865-11.458l-14.205-12.209c-.102-.198-.203-.397-.304-.596.484.954.982 1.902 1.495 2.844 10.245 18.803 15.613 39.875 15.613 61.289v38.717c0 4.572 1.816 8.956 5.049 12.189l30.239 30.239c6.737 6.737 6.723 17.655-.014 24.392-.122.122-.245.245-.367.367-6.729 6.726-17.64 6.717-24.367-.011l-28.693-28.693c-10.786-10.786-16.846-25.415-16.846-40.669v-39.628c0-13.53-3.392-26.845-9.866-38.726l-17.098-31.38c-7.663-14.064-27.856-14.064-35.519 0l-17.098 31.38c-6.474 11.881-9.866 25.196-9.866 38.726v39.627c0 15.255-6.06 29.884-16.846 40.671-13.63 13.63-28.475 28.475-28.701 28.701-6.729 6.729-17.635 6.726-24.364-.003l-.376-.376c-6.732-6.732-6.732-17.646 0-24.378l30.239-30.239c3.233-3.233 5.049-7.617 5.049-12.189v-38.717c0-21.413 5.368-42.485 15.613-61.289 0 0 .803-1.495 1.191-2.248l-14.204 12.209c-5.276 4.535-10.939 8.353-16.866 11.459l-17.362 34.536c-1.393 2.772-4.337 4.413-7.427 4.141-42.633-3.747-79.313 29.851-79.313 72.647v39.791h396.181v-39.791c0-42.796-36.681-76.394-79.313-72.648z" fill="#9dc63d"/><path d="m392.319 392.897c13.478 13.188 21.911 31.593 21.911 52.113v8.145c0 17.478-14.168 31.646-31.646 31.646h-6.513c.614 5.083-1.033 10.387-4.935 14.29-.122.122-.245.245-.367.367-6.729 6.726-17.64 6.717-24.367-.011l-14.647-14.646h-151.23c-8.167 8.167-14.508 14.508-14.655 14.655-6.729 6.729-17.635 6.726-24.364-.003l-.376-.376c-3.898-3.898-5.538-9.197-4.923-14.276h-78.157v20h396.181v-39.791c0-36.83-27.165-66.847-61.912-72.113z" fill="#90b738"/><path d="m302.874 54.316c19.046 12.358 32.604 31.199 38.177 53.051.865 3.392 3.916 5.648 7.262 5.648 4.892 0 8.482-4.612 7.273-9.355-6.508-25.517-22.328-47.509-44.547-61.927-3.475-2.254-8.119-1.266-10.374 2.209s-1.266 8.119 2.209 10.374z"/><path d="m89.869 246.496c9.663-9.663 9.672-25.313.003-34.981-10.564-10.591-26.143-9.589-35.358-.375l-2.608 2.608c-17.253 17.253-26.755 40.193-26.755 64.593 0 62.373 61.375 106.189 121.457 89.515l-8.589 17.034c-47.078-4.135-87.47 33.055-87.47 80.119v39.791c0 4.142 3.358 7.5 7.5 7.5h396.181c4.142 0 7.5-3.358 7.5-7.5v-39.79c0-46.878-40.138-84.225-87.539-80.158l-8.548-17.003c32.654 9.073 69.132.685 94.731-24.914 35.699-35.699 35.704-93.482 0-129.186l-2.608-2.609c-9.646-9.643-25.339-9.644-34.988.004-10.578 10.592-9.578 26.142-.367 35.352l6.729 6.729c13.881 13.881 13.883 36.35 0 50.233-19.641 19.643-51.529 20.845-72.595 2.738l-27.113-23.304c21.027-10.889 28.784-36.689 17.741-57.249-1.241-2.311-.868-5.128.927-7.013 22.669-23.792 35.347-54.986 35.698-87.835.76-71.132-56.461-129.806-127.554-130.794-.069-.001-.139-.001-.208 0-71.093.988-128.313 59.662-127.554 130.795.351 32.85 13.028 64.043 35.698 87.835 1.795 1.884 2.168 4.701.928 7.011-11.16 20.797-3.045 46.488 17.74 57.251l-27.113 23.304c-11.078 9.522-25.196 14.026-39.75 12.681-4.129-.375-7.777 2.654-8.158 6.778-.381 4.125 2.654 7.777 6.778 8.158 18.077 1.671 36.3-3.686 50.908-16.242l31.801-27.334c-1.232 12.175-4.662 24.093-10.113 35.065l-13.072 11.236c-51.998 44.691-133.978 9.086-133.978-58.197 0-20.394 7.941-39.566 22.362-53.986l2.608-2.608c3.797-3.796 9.974-3.796 13.768-.003l.374.375c3.797 3.797 3.797 9.975 0 13.771l-6.729 6.729c-19.698 19.698-19.698 51.749 0 71.446 2.046 2.046 4.238 3.979 6.515 5.744 3.275 2.538 7.985 1.94 10.522-1.333 2.538-3.274 1.941-7.985-1.333-10.522-1.78-1.38-3.496-2.892-5.098-4.495-13.849-13.849-13.849-36.384 0-50.233zm151.071 130.609c4.142 0 7.5-3.358 7.5-7.5v-49.739c4.512-3.443 10.949-3.398 15.401 0v49.739c0 4.142 3.358 7.5 7.5 7.5s7.5-3.358 7.5-7.5v-24.509l5.571 10.224c5.856 10.747 8.951 22.897 8.951 35.138v39.628c0 17.366 6.763 33.693 19.042 45.973l21.244 21.244h-70.009v-15.201c0-6.143 4.997-11.14 11.14-11.14h11.762c4.142 0 7.5-3.358 7.5-7.5s-3.358-7.5-7.5-7.5h-11.762c-7.291 0-13.894 3.001-18.64 7.831-4.746-4.831-11.349-7.831-18.64-7.831h-11.762c-4.142 0-7.5 3.358-7.5 7.5s3.358 7.5 7.5 7.5h11.762c6.143 0 11.14 4.997 11.14 11.14v15.201h-70.008c5.614-5.614 13.618-13.618 21.243-21.243 12.28-12.28 19.043-28.607 19.043-45.974v-39.627c0-12.239 3.095-24.39 8.952-35.138l5.57-10.223v24.509c0 4.14 3.357 7.498 7.5 7.498zm198.807-63.04c19.743-19.742 19.747-51.7 0-71.446l-6.729-6.729c-3.786-3.786-3.825-9.946.003-13.775l.367-.367c3.796-3.797 9.975-3.796 13.771-.001l2.608 2.609c14.42 14.42 22.362 33.593 22.362 53.987 0 67.148-81.908 102.952-133.978 58.196l-13.072-11.236c-5.451-10.972-8.88-22.89-10.112-35.064l31.801 27.333c27.126 23.315 67.652 21.821 92.979-3.507zm-129.567-41.494c-14.659 0-26.627-11.738-27-26.308-.463-18.087 16.754-31.622 34.298-26.708 11.374 3.189 19.711 13.664 19.711 26.007 0 14.948-12.173 27.009-27.009 27.009zm-166.699-141.936c-.671-62.854 49.858-114.706 112.659-115.634 62.801.929 113.33 52.78 112.659 115.635-.31 29.039-11.518 56.615-31.558 77.648-.948.995-1.783 2.063-2.502 3.188-6.739-4.855-14.765-7.603-23.082-7.892-23.977-.839-43.842 18.62-43.481 42.615.282 19.14 13.188 35.386 31.442 40.049.928 17.366 5.757 34.398 14.046 49.61 6.321 11.6 10.67 24.082 12.927 37.099.632 3.648 3.801 6.22 7.381 6.22 4.672 0 8.192-4.207 7.398-8.782-.9-5.19-2.096-10.303-3.581-15.324 2.183 1.458 4.417 2.824 6.698 4.094l16.303 32.43c2.792 5.552 8.593 8.789 14.784 8.243 37.982-3.341 71.156 26.44 71.156 65.177v32.291h-65.333c4.234-9.153 2.587-20.375-4.943-27.906l-30.239-30.239c-1.839-1.839-2.852-4.285-2.852-6.886v-22.621c0-4.142-3.358-7.5-7.5-7.5s-7.5 3.358-7.5 7.5v22.621c0 6.608 2.573 12.82 7.246 17.492l30.239 30.239c3.797 3.797 3.79 9.981-.003 13.775l-.377.376c-3.794 3.79-9.967 3.786-13.762-.009l-28.694-28.693c-9.446-9.447-14.649-22.006-14.649-35.366v-39.628c0-14.74-3.728-29.372-10.779-42.314l-17.098-31.38c-10.513-19.296-38.173-19.302-48.69 0l-17.098 31.38c-7.052 12.943-10.78 27.575-10.78 42.314v39.627c0 13.36-5.203 25.921-14.649 35.368-13.624 13.624-28.462 28.462-28.702 28.701-3.766 3.767-9.921 3.833-13.757-.003l-.376-.377c-3.805-3.804-3.806-9.965 0-13.771l30.24-30.239c4.672-4.673 7.245-10.885 7.245-17.492v-38.717c0-20.099 5.083-40.051 14.699-57.701 8.176-15.004 13.107-32.014 14.047-49.628 18.068-4.696 31.447-21.147 31.447-40.664 0-23.164-18.845-42.009-42.009-42.009-9.157 0-17.638 2.945-24.548 7.938-.722-1.132-1.56-2.207-2.513-3.208-20.043-21.031-31.251-48.607-31.561-77.647zm58.62 87.918c14.893 0 27.009 12.116 27.009 27.009s-12.116 27.009-27.009 27.009c-14.848 0-27.009-12.074-27.009-27.009 0-14.892 12.116-27.009 27.009-27.009zm-27.59 136.5c-3.689 12.468-5.594 25.457-5.594 38.502v38.717c0 2.601-1.013 5.046-2.852 6.886l-30.239 30.239c-7.647 7.647-9.145 18.897-4.961 27.906h-65.316v-32.293c0-38.22 32.642-68.559 71.157-65.177 6.187.539 11.993-2.692 14.784-8.244l16.304-32.43c2.287-1.273 4.528-2.643 6.717-4.106z"/><path d="m229.801 414.953 9.292 9.292c9.42 9.421 24.671 9.423 34.093 0l9.292-9.292c2.929-2.929 2.929-7.678 0-10.606-2.929-2.929-7.678-2.929-10.606 0l-9.293 9.292c-3.558 3.559-9.32 3.56-12.879 0l-9.292-9.292c-2.929-2.929-7.678-2.929-10.606 0-2.93 2.929-2.93 7.678-.001 10.606z"/><path d="m191.434 193.296c13.138-4.747 28.543-3.476 41.244 4.913 14.348 9.479 32.562 9.486 46.924 0 12.678-8.374 28.079-9.671 41.245-4.914 3.895 1.409 8.194-.609 9.603-4.505 1.408-3.896-.609-8.195-4.505-9.603-17.883-6.461-38.199-4.334-54.609 6.505-9.334 6.165-21.044 6.173-30.39 0-16.381-10.82-36.694-12.977-54.608-6.504-3.896 1.408-5.913 5.707-4.505 9.603 1.406 3.896 5.704 5.914 9.601 4.505z"/><path d="m198.019 162.401c11.644-4.207 25.296-3.08 36.552 4.354 13.19 8.713 29.938 8.72 43.14 0 11.256-7.436 24.908-8.561 36.552-4.354 3.896 1.408 8.194-.609 9.602-4.505s-.609-8.195-4.505-9.602c-16.312-5.893-34.886-3.982-49.916 5.946-8.175 5.4-18.42 5.407-26.605 0-14.974-9.89-33.539-11.862-49.916-5.945-3.896 1.407-5.913 5.707-4.505 9.602 1.406 3.894 5.705 5.912 9.601 4.504z"/></svg>