<?xml version="1.0" encoding="iso-8859-1"?>
<!-- Generator: Adobe Illustrator 19.0.0, SVG Export Plug-In . SVG Version: 6.00 Build 0)  -->
<svg version="1.1" id="Layer_1" xmlns="http://www.w3.org/2000/svg" xmlns:xlink="http://www.w3.org/1999/xlink" x="0px" y="0px"
	 viewBox="0 0 512 512" style="enable-background:new 0 0 512 512;" xml:space="preserve">
<path style="fill:#CBD0D8;" d="M502,255.891c0,137.516-111.484,249-249,249S4,393.406,4,255.891s111.484-249,249-249
	S502,118.375,502,255.891z"/>
<path style="fill:#424953;" d="M390.422,198.398c-17.188,15.586-45.344,12.523-62.906-6.836s-17.875-47.688-0.688-63.273
	c17.172-15.586,45.344-12.523,62.906,6.836S407.609,182.813,390.422,198.398z"/>
<path d="M256,0C114.609,0,0,114.617,0,256c0,141.391,114.609,256,256,256s256-114.609,256-256C512,114.617,397.391,0,256,0z
	 M39.766,164.664C51.578,136.727,68.5,111.625,90.063,90.07c21.563-21.563,46.656-38.484,74.594-50.305
	c28.922-12.227,59.656-18.43,91.344-18.43s62.422,6.203,91.344,18.43c27.938,11.82,53.031,28.742,74.594,50.305
	c21.563,21.555,38.484,46.656,50.297,74.594c12.234,28.922,18.438,59.648,18.438,91.336c0,4.453-4.375,10.453-12,16.453
	c-10.797,8.516-27.531,16.688-48.391,23.656c-22.297,7.422-48.406,13.281-77.609,17.406C322.094,317.813,289.563,320,256,320
	s-66.094-2.188-96.672-6.484c-29.203-4.125-55.313-9.984-77.609-17.406c-20.859-6.969-37.594-15.141-48.391-23.656
	c-7.625-6-12-12-12-16.453C21.328,224.313,27.531,193.586,39.766,164.664z M421.938,421.938
	c-21.563,21.547-46.656,38.484-74.594,50.297c-28.922,12.234-59.656,18.438-91.344,18.438s-62.422-6.203-91.344-18.438
	c-27.938-11.813-53.031-28.75-74.594-50.297c-21.563-21.563-38.484-46.656-50.297-74.609c-7.516-17.75-12.734-36.203-15.672-55.125
	c40.86,29.03,129.345,49.124,231.907,49.124s191.047-20.094,231.891-49.125c-2.922,18.922-8.141,37.375-15.656,55.125
	C460.422,375.281,443.5,400.375,421.938,421.938z"/>
<path d="M371.266,220.711c12.266,0,23.703-4.109,32.156-12.57c19.797-19.789,15.781-55.891-8.953-80.625
	c-14.156-14.164-32.047-21.531-48.469-21.531c-12.25,0-23.703,4.109-32.156,12.57c-19.797,19.789-15.781,55.891,8.953,80.625
	C336.969,213.344,354.844,220.711,371.266,220.711z M328.922,133.641c5.234-5.227,12.172-6.328,17.078-6.328l0,0h0.016
	c11.328,0,23.797,5.719,33.359,15.289c8.438,8.422,13.922,19.156,15.063,29.438c0.563,5.016,0.516,14.406-6.094,21.016
	c-5.234,5.227-12.172,6.32-17.078,6.32c-11.328,0-23.813-5.711-33.375-15.281c-8.438-8.43-13.922-19.156-15.063-29.438
	C322.266,149.641,322.313,140.242,328.922,133.641z"/>
<g>
</g>
<g>
</g>
<g>
</g>
<g>
</g>
<g>
</g>
<g>
</g>
<g>
</g>
<g>
</g>
<g>
</g>
<g>
</g>
<g>
</g>
<g>
</g>
<g>
</g>
<g>
</g>
<g>
</g>
</svg>
