<svg height="512" viewBox="0 0 60 60" width="512" xmlns="http://www.w3.org/2000/svg"><g id="030---Space-Ship-Taking-Off" fill="none"><g id="Icons" transform="translate(0 1)"><path id="Shape" d="m33.36 39c.9686161.0185624 1.811263-.6597685 2-1.61l1.13-5.64c-1.49.11-2.96-.81-4.49-.75 0 1.1045695-.8954305 2-2 2s-2-.8954305-2-2c-1.53 0-3 .88-4.45.77l1.13 5.64c.188737.9502315 1.0313839 1.6285624 2 1.61z" fill="#607d8b"/><path id="Shape" d="m31.21 57.48c-.3152415.3314009-.752612.5190004-1.21.5190004s-.8947585-.1875995-1.21-.5190004l-.29-.33c-7.43-8.38-4.8-14.15 1.5-14.15s8.94 5.87 1.21 14.48z" fill="#fec108"/><path id="Shape" d="m33 48c0 3.74-2.71 7.13-4.5 9.15-1.79-2-4.5-5.41-4.5-9.15 0-2.41 1.5-4.4 4.5-4.88 3 .48 4.5 2.47 4.5 4.88z" fill="#ffdc00"/><path id="Shape" d="m57.75 26.77c-1.5448728.7111954-3.1310612 1.328974-4.75 1.85-.1569424-.7285946-.7059972-1.3094822-1.4246004-1.5071952s-1.4875326.0205508-1.9950963.5663164-.6695526 1.3284859-.4203033 2.0308788c-1.86.47-3.9.9-6.13 1.26-.0061039-.7761709-.460745-1.4787162-1.1662976-1.80225-.7055525-.3235337-1.5345835-.2096211-2.1267255.2922219-.592142.5018429-.8404456 1.300976-.6369769 2.0500281-2.23.24-4.59.41-7.07.47 0-1.1045695-.8954305-2-2-2s-2 .8954305-2 2c-2.48-.06-4.84-.23-7.07-.47.1392867-.7302163-.137924-1.4774381-.719764-1.9401246-.5818399-.4626865-1.3722972-.5644878-2.0523833-.2643221-.6800861.3001658-1.1375771.9527669-1.1878527 1.6944467-2.23-.36-4.27-.79-6.13-1.26.3092795-1.068671-.306329-2.1857205-1.375-2.495-1.06867099-.3092795-2.18572054.306329-2.495 1.375-1.62911747-.5198934-3.22535558-1.1376843-4.78-1.85-.69988028-.3400726-1.16675235-1.0259778-1.22643198-1.8018129-.05967962-.7758351.29679668-1.5250749.93643198-1.9681871 2.86-2 6.07-3 12.07-3.65v.84c.0011534 1.6977047 1.1340195 3.1863808 2.77 3.64 4.3037265 1.2657635 8.7474268 1.9946244 13.23 2.17 4.4825732-.1753756 8.9262735-.9042365 13.23-2.17 1.6359805-.4536192 2.7688466-1.9422953 2.77-3.64v-.84c6 .65 9.21 1.65 12.07 3.65.6373033.4479506.9886882 1.2007168.9228045 1.9769091-.0658837.7761924-.539118 1.4589644-1.2428045 1.7930909z" fill="#7f8e94"/><path id="Shape" d="m57.75 26.77c-1.5448728.7111954-3.1310612 1.328974-4.75 1.85-.0663313-.3360035-.2178365-.6493439-.44-.91.83-.32 1.57-.64 2.22-.94.6998803-.3400726 1.1667524-1.0259778 1.226432-1.8018129s-.2967967-1.5250749-.936432-1.9681871c-2.34-1.67-4.92-2.62-9.07-3.26v-.39c6 .65 9.21 1.65 12.07 3.65.6373033.4479506.9886882 1.2007168.9228045 1.9769091-.0658837.7761924-.539118 1.4589644-1.2428045 1.7930909z" fill="#545c60"/><path id="Shape" d="m30 0c-14 0-16 8-16 13v7.19c.0011534 1.6977047 1.1340195 3.1863808 2.77 3.64 4.3037265 1.2657635 8.7474268 1.9946244 13.23 2.17 4.4825732-.1753756 8.9262735-.9042365 13.23-2.17 1.6359805-.4536192 2.7688466-1.9422953 2.77-3.64v-7.19c0-7.55-4.48-13-16-13z" fill="#549414"/><path id="Shape" d="m40.71 2.47c-8 1.38-25.11 5.94-26.15 19.69-.3732711-.5997553-.5675516-1.2936143-.56-2v-7.16c0-5 2-13 16-13 4.9 0 8.33 1 10.71 2.47z" fill="#60a917"/><path id="Shape" d="m30 30c-1.1045695 0-2 .8954305-2 2s.8954305 2 2 2 2-.8954305 2-2-.8954305-2-2-2z" fill="#7f8c8d"/><path id="Shape" d="m19 29c-1.1045695 0-2 .8954305-2 2s.8954305 2 2 2 2-.8954305 2-2-.8954305-2-2-2z" fill="#e91e63"/><path id="Shape" d="m9 27c-1.1045695 0-2 .8954305-2 2s.8954305 2 2 2 2-.8954305 2-2-.8954305-2-2-2z" fill="#e91e63"/><path id="Shape" d="m30 30c-1.1045695 0-2 .8954305-2 2s.8954305 2 2 2 2-.8954305 2-2-.8954305-2-2-2z" fill="#7f8c8d"/><path id="Shape" d="m30 30c1.1045695 0 2 .8954305 2 2s-.8954305 2-2 2-2-.8954305-2-2 .8954305-2 2-2z" fill="#7f8c8d"/><g fill="#e91e63"><path id="Shape" d="m41 29c1.1045695 0 2 .8954305 2 2s-.8954305 2-2 2-2-.8954305-2-2 .8954305-2 2-2z"/><path id="Shape" d="m51 27c1.1045695 0 2 .8954305 2 2s-.8954305 2-2 2-2-.8954305-2-2 .8954305-2 2-2z"/><path id="Shape" d="m30 30c1.1045695 0 2 .8954305 2 2s-.8954305 2-2 2-2-.8954305-2-2 .8954305-2 2-2z"/></g><path id="Shape" d="m30 7.35c.1754288-.92004743-.1190855-1.86702004-.7853796-2.52528649s-1.6167669-.94128108-2.5346204-.75471351c-2.7208261.49887503-5.0294184 2.28905964-6.19 4.8-1.99 4.13 2.9 4.13 4.85 4.13 2.29 0 3.98-1.88 4.66-5.65z" fill="#fff"/><circle id="Oval" cx="21" cy="18" fill="#fff" r="2"/></g><g id="Outline" fill="#000"><path id="Shape" d="m30 43c-6.9 0-10.63 6.48-2 16.14.50536.5463077 1.2157952.8569087 1.96.8569087s1.45464-.310601 1.96-.8569087c8.71-9.66 4.98-16.14-1.92-16.14zm.47 14.81c-.2667346.2416687-.6732654.2416687-.94 0-3.71-4.13-5.28-8.05-4.2-10.47.67-1.51 2.33-2.34 4.67-2.34s4 .83 4.66 2.34c1.09 2.42-.48 6.34-4.19 10.47z"/><path id="Shape" d="m30 0c-14.79 0-17 8.77-17 14v5.46c-5.67.68-8.79 1.68-11.65 3.73-.92652384.654865-1.43548816 1.7525724-1.33666602 2.8828506s.79055678 2.1230064 1.81666602 2.6071494c1.35995677.6230895 2.75189863 1.1738578 4.17 1.65.14669438 1.19824.99730786 2.1918267 2.15862108 2.5214476 1.16131322.3296208 2.40706752-.0689442 3.16137892-1.0114476 1.56.38 3.16.71 4.78 1 .3372759 1.130135 1.3054323 1.957803 2.474268 2.1152292 1.1688358.1574262 2.3214713-.3846001 2.945732-1.3852292l1.16.11 1 4.92c.2866354 1.4043933 1.526688 2.4098413 2.96 2.4h6.72c1.4288793-.0006722 2.6589872-1.0090259 2.94-2.41l1-4.92 1.16-.11c.6242607 1.0006291 1.7768962 1.5426554 2.945732 1.3852292 1.1688357-.1574262 2.1369921-.9850942 2.474268-2.1152292 1.62-.28 3.22-.61 4.78-1 .7497865.9560643 2.0022051 1.3654776 3.1719384 1.0369008s2.0257779-1.330255 2.1680616-2.5369008c1.4282633-.4751476 2.8302436-1.0259256 4.2-1.65 1.0261092-.484143 1.7178439-1.4768712 1.816666-2.6071494.0988222-1.1302782-.4101422-2.2279856-1.336666-2.8828506-2.86-2.05-6-3.05-11.65-3.73v-5.46c-.03-5.23-2.24-14-17.03-14zm-15 14c0-7.85 5.19-12 15-12s15 4.15 15 12v7.19c.0007409 1.2355556-.814074 2.3233335-2 2.67-10.17 2.82-15.75 2.82-25.92 0-1.185926-.3466665-2.0007409-1.4344444-2-2.67zm-6 17c-.55228475 0-1-.4477153-1-1s.44771525-1 1-1 1 .4477153 1 1-.44771525 1-1 1zm10 2c-.5522847 0-1-.4477153-1-1s.4477153-1 1-1 1 .4477153 1 1-.4477153 1-1 1zm15.34 5.2c-.0964736.4731232-.5172392.8097357-1 .8h-6.7c-.4827608.0097357-.9035264-.3268768-1-.8l-.88-4.37c.8.05 1.59.08 2.39.11.422469 1.2009434 1.5569152 2.0044599 2.83 2.0044599s2.407531-.8035165 2.83-2.0044599c.8 0 1.59-.06 2.39-.11zm-4.34-6.2c.5522847 0 1 .4477153 1 1s-.4477153 1-1 1-1-.4477153-1-1 .4477153-1 1-1zm11 1c-.5522847 0-1-.4477153-1-1s.4477153-1 1-1 1 .4477153 1 1-.4477153 1-1 1zm10-2c-.5522847 0-1-.4477153-1-1s.4477153-1 1-1 1 .4477153 1 1-.4477153 1-1 1zm6.32-4.13c-1.2428148.5664721-2.5145725 1.0671641-3.81 1.5-.7189339-1.0994744-2.0695709-1.6033232-3.3329483-1.2433409s-2.1456013 1.5000547-2.1770517 2.8133409c-1.4.33-2.82.63-4.26.88-.5402735-1.2201879-1.8215735-1.9368279-3.1440521-1.7584902-1.3224786.1783378-2.368183 1.2087769-2.5659479 2.5284902-1.74.17-3.49.29-5.24.35-.4456324-1.1585259-1.5587222-1.922967-2.8-1.922967s-2.3543676.7644411-2.8 1.922967c-1.75-.06-3.5-.18-5.24-.35-.1977649-1.3197133-1.2434693-2.3501524-2.5659479-2.5284902-1.3224786-.1783377-2.6037786.5383023-3.1440521 1.7584902-1.44-.25-2.86-.55-4.26-.88-.0376774-1.3071944-.9177771-2.4393752-2.175284-2.7983363-1.25750694-.3589611-2.60265611.1380124-3.324716 1.2283363-1.29542748-.4328359-2.56718522-.9335279-3.81-1.5-.38722349-.1805565-.64793383-.5548418-.68307288-.9806445-.03513906-.4258027.1606869-.8377633.51307288-1.0793555 2.5-1.81 5.36-2.71 10.5-3.34.1173362 2.0358234 1.5158394 3.7718963 3.48 4.32 10.47 2.9 16.53 2.9 27 0 1.9799319-.5336892 3.397214-2.2730808 3.52-4.32 5.16.63 8 1.54 10.51 3.34.3452253.2483476.5332198.6608647.4941614 1.0843401-.0390584.4234755-.2993349.7946472-.6841614.9756599z"/><path id="Shape" d="m25.34 15c1.69 0 4.65-.84 5.6-6.49.2293865-1.247144-.1767394-2.52668006-1.0833691-3.41325153-.9066296-.88657148-2.19493-1.26397436-3.4366309-1.00674847-3.0205765.56708912-5.5802041 2.56039451-6.87 5.35-.6876715 1.1200637-.7295432 2.5208619-.11 3.68 1.18 1.88 4.25 1.88 5.9 1.88zm-4-4.7c1.0190828-2.25531453 3.083882-3.86376315 5.52-4.3.6045211-.1233144 1.230354.06802844 1.6625598.50831284.4322058.44028439.6119273 1.06955313.4774402 1.67168716-.37 2.2-1.3 4.82-3.63 4.82-1 0-3.62 0-4.21-.95-.32-.44-.07-1.2.2-1.75z"/><path id="Shape" d="m21 22c1.6568542 0 3-1.3431458 3-3s-1.3431458-3-3-3-3 1.3431458-3 3 1.3431458 3 3 3zm0-4c.5522847 0 1 .4477153 1 1s-.4477153 1-1 1-1-.4477153-1-1 .4477153-1 1-1z"/><path id="Shape" d="m39.45 43.11c-.3211808-.1932607-.7234705-.1906728-1.0421383.0067041-.3186678.1973768-.5001928.5563928-.4702434.9300368s.2663431.6991617.6123817.8432591c2.2 1.11 2.13 1.11 2.45 1.11.4608398-.0027311.8601381-.3200462.96688-.7683619.1067418-.4483157-.1067173-.9115255-.51688-1.1216381z"/><path id="Shape" d="m44 41c0-.5522847-.4477153-1-1-1h-2c-.5522847 0-1 .4477153-1 1s.4477153 1 1 1h2c.5522847 0 1-.4477153 1-1z"/><path id="Shape" d="m19 46c.31 0 .25 0 2.45-1.11.3460386-.1440974.5824323-.4696151.6123817-.8432591s-.1515756-.73266-.4702434-.9300368c-.3186678-.1973769-.7209575-.1999648-1.0421383-.0067041l-2 1c-.4101627.2101126-.6236218.6733224-.51688 1.1216381.1067419.4483157.5060402.7656308.96688.7683619z"/><path id="Shape" d="m20 41c0-.5522847-.4477153-1-1-1h-2c-.5522847 0-1 .4477153-1 1s.4477153 1 1 1h2c.5522847 0 1-.4477153 1-1z"/></g></g></svg>