<svg height="469pt" viewBox="0 0 469.72386 469" width="469pt" xmlns="http://www.w3.org/2000/svg"><path d="m290.21875 179.867188c-92.371094-92.367188-182.394531-152.101563-201.074219-133.417969-18.683593 18.683593 41.050781 108.707031 133.417969 201.074219 92.367188 92.367187 182.390625 152.101562 201.074219 133.417968 18.683593-18.679687-41.050781-108.703125-133.417969-201.074218zm0 0" fill="#f98b00"/><path d="m296.078125 174.007812c-125.109375-125.113281-253.851563-199.214843-287.554687-165.511718-33.699219 33.699218 40.402343 162.445312 165.511718 287.554687s253.855469 199.210938 287.554688 165.511719c33.703125-33.703125-40.398438-162.445312-165.511719-287.554688zm127.558594 206.933594c-18.679688 18.683594-108.707031-41.050781-201.074219-133.417968-92.367188-92.371094-152.101562-182.394532-133.417969-201.074219 18.679688-18.683594 108.707031 41.050781 201.074219 133.417969 92.367188 92.367187 152.101562 182.390624 133.417969 201.074218zm0 0" fill="#ffec6c"/><path d="m405.722656 235.027344c0 94.257812-76.410156 170.667968-170.664062 170.667968-94.257813 0-170.667969-76.410156-170.667969-170.667968 0-94.253906 76.410156-170.664063 170.667969-170.664063 94.253906 0 170.664062 76.410157 170.664062 170.664063zm0 0" fill="#ffa300"/><path d="m321.742188 105.675781c-56.945313-56.945312-151.472657-54.75-211.128907 4.90625-59.660156 59.660157-61.855469 154.1875-4.910156 211.132813 56.949219 56.949218 151.476563 54.75 211.132813-4.90625s61.855468-154.183594 4.90625-211.132813zm0 0" fill="#ffbe00"/><path d="m385.246094 298.058594c-.667969 0-1.355469-.03125-2.042969-.09375-111.1875-10.601563-199.917969-98.957032-210.980469-210.082032-1.164062-11.722656 7.394532-22.171874 19.117188-23.339843 11.722656-1.164063 22.171875 7.390625 23.34375 19.109375 9.0625 90.898437 81.625 163.167968 172.5625 171.835937 11.328125 1.082031 19.8125 10.867188 19.28125 22.238281-.535156 11.371094-9.902344 20.316407-21.28125 20.332032zm0 0" fill="#ffa300"/><path d="m385.246094 298.058594c-.6875 0-1.355469-.03125-2.0625-.09375-8.183594-.785156-16.320313-1.996094-24.375-3.632813-11.539063-2.355469-18.988282-13.613281-16.644532-25.152343 2.347657-11.542969 13.601563-19 25.144532-16.660157 6.59375 1.339844 13.257812 2.332031 19.957031 2.96875 11.324219 1.09375 19.800781 10.882813 19.261719 22.246094-.539063 11.367187-9.90625 20.308594-21.28125 20.324219zm0 0" fill="#f98b00"/><path d="m368.390625 209.476562c-3.535156 0-7.015625-.882812-10.125-2.5625-44.578125-24.214843-80.195313-62.113281-101.605469-108.105468-4.945312-10.6875-.292968-23.363282 10.398438-28.3125 10.6875-4.945313 23.363281-.292969 28.3125 10.398437 17.527344 37.648438 46.6875 68.664063 83.1875 88.476563 8.597656 4.648437 12.9375 14.542968 10.535156 24.015625-2.398438 9.472656-10.929688 16.101562-20.703125 16.089843zm0 0" fill="#ffa300"/><path d="m320.390625 395.027344c-135.269531 0-245.332031-110.050782-245.332031-245.332032-.007813-11.789062 9.542968-21.347656 21.332031-21.347656s21.339844 9.558594 21.332031 21.347656c0 111.75 90.917969 202.667969 202.667969 202.667969 11.789063-.007812 21.347656 9.542969 21.347656 21.332031 0 11.789063-9.558593 21.34375-21.347656 21.332032zm0 0" fill="#ffa300"/><path d="m320.390625 395.027344c-32.070313.058594-63.835937-6.210938-93.480469-18.445313-10.894531-4.484375-16.085937-16.953125-11.597656-27.847656 4.488281-10.890625 16.957031-16.082031 27.847656-11.589844 24.496094 10.09375 50.738282 15.265625 77.230469 15.21875 11.789063-.007812 21.347656 9.542969 21.347656 21.332031 0 11.789063-9.558593 21.34375-21.347656 21.332032zm0 0" fill="#f98b00"/><path d="m174.035156 296.050781c52.300782 52.300781 105.144532 95.5 151.507813 125.824219l50.597656-50.59375c-39.054687-21.0625-95.859375-66.039062-153.578125-123.757812-57.71875-57.722657-102.695312-114.523438-123.757812-153.578126l-50.59375 50.597657c30.324218 46.363281 73.523437 99.207031 125.824218 151.507812zm0 0" fill="#ffec6c"/><path d="m96.535156 197.445312c-6.660156.019532-12.949218-3.089843-16.976562-8.394531-18.1875-23.824219-107.085938-144.523437-71.042969-180.554687 7.492187-7.492188 19.347656-8.347656 27.839844-2.011719 8.492187 6.339844 11.042969 17.949219 5.992187 27.261719.5625 13.210937 17.9375 59.730468 71.125 129.429687 4.917969 6.445313 5.753906 15.121094 2.164063 22.386719-3.59375 7.269531-10.992188 11.875-19.101563 11.882812zm-57.8125-158.8125c-.019531.011719-.019531.019532-.039062.03125.019531-.011718.019531-.019531.039062-.03125zm0 0" fill="#ffff9d"/><path d="m352.078125 434.707031c-3.917969 0-7.761719-1.082031-11.105469-3.125-52-31.75-111.289062-79.886719-166.9375-135.53125-19.875-19.875-38.664062-39.960937-55.8125-59.667969-7.71875-8.894531-6.773437-22.363281 2.117188-30.089843 8.886718-7.730469 22.359375-6.792969 30.09375 2.089843 16.5 18.96875 34.582031 38.3125 53.769531 57.5 53.332031 53.324219 109.792969 99.238282 159.019531 129.28125 8.160156 4.988282 12.003906 14.792969 9.410156 23.996094-2.59375 9.199219-10.992187 15.554688-20.554687 15.546875zm0 0" fill="#ffff9d"/><path d="m437.910156 469.695312c-13.269531 0-29.457031-4.238281-49.5-12.957031-10.792968-4.710937-15.730468-17.28125-11.027344-28.078125 4.703126-10.800781 17.269532-15.742187 28.070313-11.046875 19.1875 8.351563 28.855469 9.382813 32.292969 9.414063 9.410156-4.242188 20.507812-1.136719 26.351562 7.375 5.84375 8.507812 4.757813 19.980468-2.582031 27.242187-5.394531 5.34375-13.355469 8.050781-23.605469 8.050781zm-6.351562-38.425781c-.023438.007813-.023438.019531-.042969.039063.019531-.019532.019531-.03125.042969-.039063zm0 0" fill="#ffff9d"/><g fill="#d6deff"><path d="m85.722656 256.363281c0 11.78125-9.550781 21.332031-21.332031 21.332031s-21.332031-9.550781-21.332031-21.332031 9.550781-21.335937 21.332031-21.335937 21.332031 9.554687 21.332031 21.335937zm0 0"/><path d="m384.390625 21.695312c0 11.78125-9.550781 21.332032-21.332031 21.332032-11.785156 0-21.335938-9.550782-21.335938-21.332032s9.550782-21.332031 21.335938-21.332031c11.78125 0 21.332031 9.550781 21.332031 21.332031zm0 0"/><path d="m469.722656 139.027344c0 5.894531-4.773437 10.667968-10.664062 10.667968-5.894532 0-10.667969-4.773437-10.667969-10.667968 0-5.890625 4.773437-10.664063 10.667969-10.664063 5.890625 0 10.664062 4.773438 10.664062 10.664063zm0 0"/><path d="m21.722656 395.027344c0 5.894531-4.773437 10.667968-10.664062 10.667968-5.894532 0-10.667969-4.773437-10.667969-10.667968 0-5.890625 4.773437-10.664063 10.667969-10.664063 5.890625 0 10.664062 4.773438 10.664062 10.664063zm0 0"/><path d="m213.722656 459.027344c0 5.894531-4.773437 10.667968-10.664062 10.667968-5.894532 0-10.667969-4.773437-10.667969-10.667968 0-5.890625 4.773437-10.664063 10.667969-10.664063 5.890625 0 10.664062 4.773438 10.664062 10.664063zm0 0"/><path d="m427.058594 299.027344c0 11.785156-9.554688 21.335937-21.335938 21.335937s-21.332031-9.550781-21.332031-21.335937c0-11.78125 9.550781-21.332032 21.332031-21.332032s21.335938 9.550782 21.335938 21.332032zm0 0"/><path d="m85.722656 11.027344c0 5.894531-4.773437 10.667968-10.664062 10.667968-5.894532 0-10.667969-4.773437-10.667969-10.667968 0-5.890625 4.773437-10.664063 10.667969-10.664063 5.890625 0 10.664062 4.773438 10.664062 10.664063zm0 0"/></g></svg>