<?xml version="1.0" encoding="iso-8859-1"?>
<!-- Generator: Adobe Illustrator 19.0.0, SVG Export Plug-In . SVG Version: 6.00 Build 0)  -->
<svg version="1.1" id="Capa_1" xmlns="http://www.w3.org/2000/svg" xmlns:xlink="http://www.w3.org/1999/xlink" x="0px" y="0px"
	 viewBox="0 0 448.001 448.001" style="enable-background:new 0 0 448.001 448.001;" xml:space="preserve">
<path style="fill:#DEEFDD;" d="M224,344.014c91.806,0,168.451,16.119,187.402,37.647l-72.776-105.819l-5.25,1.297
	c-66.625,16.406-152.141,16.406-218.766,0l-5.25-1.297L35.411,382.97h0.105C52.45,360.789,130.341,344.014,224,344.014z"/>
<ellipse style="fill:#7F8FA0;" cx="224.001" cy="199.986" rx="224" ry="96"/>
<path style="fill:#738394;" d="M224,267.761c-112.706,0-205.704-35.71-221.406-82.149C0.92,190.31,0,195.113,0,200.014
	c0,53.019,100.288,96,224,96s224-42.981,224-96c0-4.902-0.92-9.705-2.594-14.402C429.705,232.05,336.706,267.761,224,267.761z"/>
<path style="fill:#A6B5C8;" d="M96.972,120.983c-0.558,5.056-0.909,10.16-0.829,15.346c0.074,4.813,2.54,9.364,6.402,12.238
	c27.543,20.499,58.434,35.448,121.456,35.448s93.913-14.95,121.457-35.448c3.86-2.873,6.326-7.424,6.399-12.235
	c0.079-5.185-0.274-10.29-0.835-15.35c-36.108-10.68-79.831-16.967-127.022-16.967C176.807,104.014,133.081,110.302,96.972,120.983z
	"/>
<path style="fill:#7F8FA0;" d="M346.355,147.518c-15.58-11.824-64.203-20.504-122.354-20.504c-58.15,0-106.774,8.68-122.354,20.505
	c0.348,0.31,0.522,0.767,0.898,1.047c27.543,20.499,58.434,35.448,121.456,35.448s93.913-14.95,121.457-35.448
	C345.833,148.287,346.007,147.828,346.355,147.518z"/>
<path style="fill:#8D9DAE;" d="M346.355,147.518c-15.58-11.824-64.203-20.504-122.354-20.504c-58.15,0-106.774,8.68-122.354,20.505
	c0.348,0.31,0.522,0.767,0.898,1.047c27.543,20.499,58.434,35.448,121.456,35.448s93.913-14.95,121.457-35.448
	C345.833,148.287,346.007,147.828,346.355,147.518z"/>
<path style="fill:#CDDCF0;" d="M224,104.014c47.19,0,90.913,6.287,127.022,16.967C344.159,59.014,290.779,8.014,224,8.014
	c-66.53,0-120.165,50.798-127.028,112.969C133.081,110.302,176.807,104.014,224,104.014z"/>
<path style="fill:#ACC6B9;" d="M224,184.014c18.03,0,33.206-1.34,46.65-3.567c5.751-13.656,9.35-29.322,9.35-45.433
	c0-30.875-25.125-56-56-56s-56,25.125-56,56c0,16.11,3.598,31.776,9.35,45.433C190.794,182.674,205.97,184.014,224,184.014z"/>
<g>
	<path style="fill:#A6B5C8;" d="M224,200.014c-17.673,0-32,14.326-32,32s14.327,32,32,32s32-14.326,32-32
		S241.674,200.014,224,200.014z"/>
	<path style="fill:#A6B5C8;" d="M80,176.014c-17.673,0-32,14.326-32,32s14.327,32,32,32s32-14.326,32-32S97.674,176.014,80,176.014z
		"/>
	<path style="fill:#A6B5C8;" d="M368,176.014c-17.673,0-32,14.326-32,32s14.327,32,32,32s32-14.326,32-32
		S385.674,176.014,368,176.014z"/>
</g>
<ellipse transform="matrix(-0.853 -0.522 0.522 -0.853 289.7775 376.4356)" cx="197.909" cy="147.403" rx="20.257" ry="10.128"/>
<ellipse transform="matrix(-0.5219 -0.853 0.853 -0.5219 254.7423 437.6083)" cx="250.008" cy="147.414" rx="10.128" ry="20.256"/>
<path style="fill:#DCE7F6;" d="M219.53,79.466c-3.406-14.012-15.948-24.452-31.009-24.452c-17.673,0-32,14.326-32,32
	c0,11.631,6.267,21.714,15.548,27.316C179.79,95.025,197.944,81.21,219.53,79.466z"/>
<path style="fill:#ACC6B9;" d="M220.521,87.014c0-2.614-0.4-5.116-0.991-7.548c-21.586,1.744-39.74,15.558-47.461,34.864
	c4.822,2.91,10.41,4.683,16.452,4.683C206.194,119.014,220.521,104.687,220.521,87.014z"/>
<path style="fill:#C5D8D0;" d="M220.521,87.014c0-2.614-0.4-5.116-0.991-7.548c-21.586,1.744-39.74,15.558-47.461,34.864
	c4.822,2.91,10.41,4.683,16.452,4.683C206.194,119.014,220.521,104.687,220.521,87.014z"/>
<ellipse style="fill:#C7E4C7;" cx="224.001" cy="391.986" rx="192" ry="48"/>
<path style="fill:#5886C5;" d="M224,216.014c8.822,0,16,7.178,16,16s-7.178,16-16,16s-16-7.178-16-16S215.178,216.014,224,216.014"
	/>
<path style="fill:#EE6058;" d="M80,192.014c8.822,0,16,7.178,16,16s-7.178,16-16,16s-16-7.178-16-16
	C64,199.192,71.178,192.014,80,192.014"/>
<path style="fill:#EB7A25;" d="M368,192.014c8.822,0,16,7.178,16,16s-7.178,16-16,16s-16-7.178-16-16
	C352,199.192,359.178,192.014,368,192.014"/>
<g>
</g>
<g>
</g>
<g>
</g>
<g>
</g>
<g>
</g>
<g>
</g>
<g>
</g>
<g>
</g>
<g>
</g>
<g>
</g>
<g>
</g>
<g>
</g>
<g>
</g>
<g>
</g>
<g>
</g>
</svg>
